/* XPM */
static char * C:\Users\pheno\Documents\codeblocks\test\Iconos\chafalladas_16_xpm[] = {
"16 16 131 2",
"  	c None",
". 	c #E1272C",
"+ 	c #E94044",
"@ 	c #E6272D",
"# 	c #D93129",
"$ 	c #DB3C31",
"% 	c #D03A3D",
"& 	c #F7C6C2",
"* 	c #F6B5B5",
"= 	c #EE492C",
"- 	c #F7BC48",
"; 	c #F29138",
"> 	c #E8832E",
", 	c #A62D30",
"' 	c #847F85",
") 	c #8B878C",
"! 	c #86807B",
"~ 	c #FAF7D1",
"{ 	c #F29493",
"] 	c #EF861C",
"^ 	c #F28422",
"/ 	c #F06328",
"( 	c #F7BF63",
"_ 	c #E66145",
": 	c #545255",
"< 	c #6D6A6E",
"[ 	c #705355",
"} 	c #897075",
"| 	c #928E94",
"1 	c #949096",
"2 	c #8C888D",
"3 	c #9E9A8F",
"4 	c #AD7172",
"5 	c #8D696B",
"6 	c #D86E6F",
"7 	c #F5A751",
"8 	c #FDE846",
"9 	c #8A878C",
"0 	c #8D898F",
"a 	c #928F93",
"b 	c #8F8B91",
"c 	c #938F95",
"d 	c #8D8084",
"e 	c #E6A723",
"f 	c #F6BA1A",
"g 	c #4D4B4E",
"h 	c #8B878D",
"i 	c #8E8B90",
"j 	c #DADADA",
"k 	c #F0F0F0",
"l 	c #BAB9BA",
"m 	c #918D92",
"n 	c #9E9C9F",
"o 	c #C2C1C2",
"p 	c #B1B0B2",
"q 	c #8B7579",
"r 	c #DB6725",
"s 	c #848086",
"t 	c #C6C6C6",
"u 	c #E6E6E6",
"v 	c #D9D8D9",
"w 	c #8B888D",
"x 	c #D0D0D0",
"y 	c #E8E8E8",
"z 	c #C1C0C1",
"A 	c #887A7D",
"B 	c #D24039",
"C 	c #59575A",
"D 	c #78757A",
"E 	c #908C92",
"F 	c #686668",
"G 	c #C0C0C0",
"H 	c #AEADAF",
"I 	c #A8A6A8",
"J 	c #C3C2C2",
"K 	c #686669",
"L 	c #918D93",
"M 	c #8A6064",
"N 	c #7A777C",
"O 	c #857B80",
"P 	c #926668",
"Q 	c #8F8B90",
"R 	c #939095",
"S 	c #8B8789",
"T 	c #938D5B",
"U 	c #666468",
"V 	c #79767A",
"W 	c #867A7F",
"X 	c #DE4744",
"Y 	c #A05C5B",
"Z 	c #8E888E",
"` 	c #938E94",
" .	c #8A8282",
"..	c #C8AB3D",
"+.	c #CEC467",
"@.	c #928E93",
"#.	c #646266",
"$.	c #6B686C",
"%.	c #C37778",
"&.	c #EC3B2D",
"*.	c #CB4C30",
"=.	c #BD6642",
"-.	c #E18D20",
";.	c #F7C25D",
">.	c #A49D90",
",.	c #8E8A90",
"'.	c #504F51",
").	c #8C868B",
"!.	c #C88686",
"~.	c #ED7065",
"{.	c #F17045",
"].	c #EB9D74",
"^.	c #B19D90",
"/.	c #777479",
"(.	c #555457",
"_.	c #8E8A8F",
":.	c #8B8488",
"<.	c #948C8E",
"[.	c #888387",
"}.	c #827E84",
"|.	c #807D82",
"1.	c #8C888E",
"2.	c #6D6B6F",
"3.	c #5C5A5D",
"4.	c #676468",
"5.	c #848186",
"6.	c #5D5B5F",
"7.	c #5D5A5D",
"8.	c #747276",
"9.	c #7C787D",
"0.	c #636164",
"                  . + @ # $     ",
"                % & * = - ; >   ",
"          , ' ) ! ~ { ] ^ / ( _ ",
"    : < [ } | 1 2 3 4 5 6 7 8   ",
"    9 1 0 a b 1 1 c | 1 d e f   ",
"  g h i j k l m n o p c q r     ",
"    b s t u v w x y z i A B     ",
"C D 1 E F G H c I J K c L M     ",
"N 1 1 O P Q R 1 1 S T m 1 c U   ",
"V c 1 W X Y Z `  ...+.@.1 | #.  ",
"  $.c Q %.&.*.=.-.;.>.1 ,.'.    ",
"    h 1 ).!.~.{.].^.b 1 /.      ",
"  (.b 1 1 _.:.<.[.| 1 1 }.      ",
"    |.| 1.c 1 1 1 c h | 2.      ",
"      3.  4.L 1 5.6.  7.        ",
"            8.9.0.              "};
