/* XPM */
static char * C:\Users\pheno\Documents\codeblocks\test\Iconos\chafalladas_32_xpm[] = {
"32 32 387 2",
"  	c None",
". 	c #D2191F",
"+ 	c #E11A22",
"@ 	c #E71B23",
"# 	c #D31920",
"$ 	c #CF181F",
"% 	c #D61920",
"& 	c #E41B22",
"* 	c #ED2027",
"= 	c #EE373C",
"- 	c #EF575A",
"; 	c #EE3A3E",
"> 	c #EB1C24",
", 	c #C6171D",
"' 	c #E9332E",
") 	c #EE4F41",
"! 	c #C1171C",
"~ 	c #DB3B26",
"{ 	c #E63E2D",
"] 	c #DF1A22",
"^ 	c #EA1C24",
"/ 	c #EE4B4E",
"( 	c #F7BABB",
"_ 	c #FCE9E9",
": 	c #F5A6A7",
"< 	c #ED3035",
"[ 	c #ED1C24",
"} 	c #EE4929",
"| 	c #F8C468",
"1 	c #F28C5B",
"2 	c #EE6F23",
"3 	c #F8C03D",
"4 	c #E34F2E",
"5 	c #2C2B2C",
"6 	c #2D2C2D",
"7 	c #392B2B",
"8 	c #B12428",
"9 	c #D94A4C",
"0 	c #FBE2DF",
"a 	c #FFFEF3",
"b 	c #FAD8D9",
"c 	c #ED2B30",
"d 	c #ED1D24",
"e 	c #F06D20",
"f 	c #FCDC2C",
"g 	c #FDE551",
"h 	c #F06431",
"i 	c #FAC80F",
"j 	c #EE7D21",
"k 	c #C9191E",
"l 	c #E11E23",
"m 	c #D91921",
"n 	c #60292B",
"o 	c #706D71",
"p 	c #7F7C81",
"q 	c #838085",
"r 	c #817D82",
"s 	c #7B767B",
"t 	c #787470",
"u 	c #FDFAD1",
"v 	c #FFFEE8",
"w 	c #F8C6C7",
"x 	c #ED2028",
"y 	c #EF4E21",
"z 	c #FAC20C",
"A 	c #FBD411",
"B 	c #F17425",
"C 	c #F26F1B",
"D 	c #F16E1E",
"E 	c #EF5233",
"F 	c #F5A86D",
"G 	c #F07155",
"H 	c #D71920",
"I 	c #DC1A21",
"J 	c #A22B2E",
"K 	c #89858B",
"L 	c #949096",
"M 	c #938F95",
"N 	c #78765F",
"O 	c #FBF7AC",
"P 	c #FFFDE3",
"Q 	c #F8C2C3",
"R 	c #ED2026",
"S 	c #E6671D",
"T 	c #F38519",
"U 	c #EE3F22",
"V 	c #ED1F24",
"W 	c #ED2C2D",
"X 	c #EF5629",
"Y 	c #FCE25E",
"Z 	c #FEF584",
"` 	c #EC6142",
" .	c #4B494B",
"..	c #313131",
"+.	c #932326",
"@.	c #923234",
"#.	c #675558",
"$.	c #8E8B90",
"%.	c #6D6B6C",
"&.	c #8D8B66",
"*.	c #C6C4B4",
"=.	c #ECAAAA",
"-.	c #C1252A",
";.	c #614A4B",
">.	c #A43632",
",.	c #E71E25",
"'.	c #EE4347",
").	c #F17273",
"!.	c #F7B828",
"~.	c #FFF546",
"{.	c #FDEA60",
"].	c #E33A29",
"^.	c #2D2D2D",
"/.	c #696669",
"(.	c #918D92",
"_.	c #777479",
":.	c #484344",
"<.	c #706C70",
"[.	c #8C888E",
"}.	c #908C92",
"|.	c #7B787D",
"1.	c #6C5153",
"2.	c #6A6064",
"3.	c #918D93",
"4.	c #7C787D",
"5.	c #8D393C",
"6.	c #F0BFC0",
"7.	c #F06A63",
"8.	c #FDE010",
"9.	c #FFF427",
"0.	c #FBD63D",
"a.	c #DE2B23",
"b.	c #6D6B6F",
"c.	c #928E94",
"d.	c #937879",
"e.	c #EB672A",
"f.	c #FDDA05",
"g.	c #FFEF0B",
"h.	c #F6AE23",
"i.	c #D51E20",
"j.	c #636164",
"k.	c #928F94",
"l.	c #8F8B91",
"m.	c #7A777B",
"n.	c #8C8B8D",
"o.	c #888688",
"p.	c #7C797E",
"q.	c #7B777C",
"r.	c #AC6F27",
"s.	c #FAC209",
"t.	c #FBCA0C",
"u.	c #E85021",
"v.	c #605E62",
"w.	c #8B898B",
"x.	c #E9E9E9",
"y.	c #FDFDFD",
"z.	c #F5F5F5",
"A.	c #D2D2D2",
"B.	c #7D7A7D",
"C.	c #817E82",
"D.	c #919091",
"E.	c #ADACAD",
"F.	c #8D8B8D",
"G.	c #797479",
"H.	c #A46329",
"I.	c #F59614",
"J.	c #EB5520",
"K.	c #282828",
"L.	c #706D72",
"M.	c #E5E5E5",
"N.	c #FFFFFF",
"O.	c #FEFEFE",
"P.	c #C8C8C8",
"Q.	c #D0D0D0",
"R.	c #C1C1C1",
"S.	c #868287",
"T.	c #817E81",
"U.	c #D3D2D3",
"V.	c #D3D3D3",
"W.	c #EAEAEA",
"X.	c #F4F4F4",
"Y.	c #9A999A",
"Z.	c #858187",
"`.	c #8E3632",
" +	c #EB4A25",
".+	c #E12821",
"++	c #302F30",
"@+	c #837F85",
"#+	c #6E6B6F",
"$+	c #E3E3E3",
"%+	c #FAFAFA",
"&+	c #FCFCFC",
"*+	c #B9B8B9",
"=+	c #79767B",
"-+	c #A6A5A6",
";+	c #EBEBEB",
">+	c #DBDBDB",
",+	c #E2E1E1",
"'+	c #D0CFD0",
")+	c #868388",
"!+	c #908C91",
"~+	c #794D4A",
"{+	c #E96554",
"]+	c #585659",
"^+	c #6B676C",
"/+	c #5B595A",
"(+	c #B0B0B0",
"_+	c #CBCBCB",
":+	c #DDDCDD",
"<+	c #D9D9D9",
"[+	c #807D82",
"}+	c #A7A6A7",
"|+	c #E0E0E0",
"1+	c #BAB9B9",
"2+	c #939292",
"3+	c #858287",
"4+	c #757074",
"5+	c #C6282A",
"6+	c #2D2D2E",
"7+	c #363335",
"8+	c #393737",
"9+	c #F0F0F0",
"0+	c #919092",
"a+	c #E6E6E6",
"b+	c #D5D5D5",
"c+	c #373535",
"d+	c #595759",
"e+	c #8B878C",
"f+	c #843234",
"g+	c #A42528",
"h+	c #3D3B3D",
"i+	c #79767A",
"j+	c #827E83",
"k+	c #7B7A7B",
"l+	c #787777",
"m+	c #B3B2B2",
"n+	c #848385",
"o+	c #8B878D",
"p+	c #827F82",
"q+	c #AFAFAF",
"r+	c #686667",
"s+	c #595559",
"t+	c #8A868C",
"u+	c #807C81",
"v+	c #7B777B",
"w+	c #565457",
"x+	c #525053",
"y+	c #747074",
"z+	c #6F696C",
"A+	c #8D898F",
"B+	c #8F8B90",
"C+	c #7A777A",
"D+	c #676463",
"E+	c #928E93",
"F+	c #6F6D71",
"G+	c #59575A",
"H+	c #704C4E",
"I+	c #C43027",
"J+	c #6B5658",
"K+	c #8E8A90",
"L+	c #726F6F",
"M+	c #B3AB2A",
"N+	c #A29C39",
"O+	c #8A878C",
"P+	c #747175",
"Q+	c #575557",
"R+	c #6F575A",
"S+	c #EA3834",
"T+	c #D23424",
"U+	c #704F50",
"V+	c #89868B",
"W+	c #908D92",
"X+	c #6D6866",
"Y+	c #C1AE1F",
"Z+	c #FCEF1F",
"`+	c #A4A06C",
" @	c #8C898E",
".@	c #726F74",
"+@	c #4C4B4C",
"@@	c #918E93",
"#@	c #6D676B",
"$@	c #DE696B",
"%@	c #EE2D22",
"&@	c #DC3822",
"*@	c #81433E",
"=@	c #858186",
"-@	c #6F6052",
";@	c #D1A61A",
">@	c #FCD706",
",@	c #FBEA76",
"'@	c #82807A",
")@	c #6A676C",
"!@	c #2C2C2C",
"~@	c #4A494B",
"{@	c #4D4B4D",
"]@	c #B48788",
"^@	c #ED3A3B",
"/@	c #EF3021",
"(@	c #EA401F",
"_@	c #B74227",
":@	c #784B44",
"<@	c #6B5C5D",
"[@	c #70564E",
"}@	c #A7692B",
"|@	c #E89E13",
"1@	c #FAB90A",
"2@	c #FCCC29",
"3@	c #E1D5B2",
"4@	c #6F6C70",
"5@	c #575558",
"6@	c #383738",
"7@	c #6A686C",
"8@	c #6E6B6D",
"9@	c #DF999A",
"0@	c #EE3130",
"a@	c #EF3520",
"b@	c #F0461D",
"c@	c #EF561B",
"d@	c #EA6519",
"e@	c #F07715",
"f@	c #F68A12",
"g@	c #F89C0F",
"h@	c #F9AE1C",
"i@	c #F6D7A5",
"j@	c #8D8C8A",
"k@	c #817D83",
"l@	c #434244",
"m@	c #7F797B",
"n@	c #E2A5A5",
"o@	c #EF4946",
"p@	c #F03A21",
"q@	c #F14A1C",
"r@	c #F25C19",
"s@	c #F46D17",
"t@	c #F57E14",
"u@	c #F7932B",
"v@	c #F4C7A1",
"w@	c #A29F9C",
"x@	c #7D7A7F",
"y@	c #605E61",
"z@	c #737074",
"A@	c #716E70",
"B@	c #C0A5A5",
"C@	c #EBA09E",
"D@	c #F1786D",
"E@	c #F26B50",
"F@	c #F38160",
"G@	c #F2AC94",
"H@	c #D4B5A6",
"I@	c #858282",
"J@	c #7E7B80",
"K@	c #878489",
"L@	c #333233",
"M@	c #3D3C3D",
"N@	c #878282",
"O@	c #9A9291",
"P@	c #8D8988",
"Q@	c #747172",
"R@	c #8E8A8F",
"S@	c #292929",
"T@	c #727074",
"U@	c #313031",
"V@	c #444345",
"W@	c #5B585C",
"X@	c #49474A",
"Y@	c #88848A",
"Z@	c #7D797F",
"`@	c #868288",
" #	c #5E5C60",
".#	c #424143",
"+#	c #545254",
"@#	c #2A2A2A",
"##	c #414042",
"$#	c #6A676B",
"%#	c #827F84",
"&#	c #4E4D50",
"*#	c #2B2B2B",
"=#	c #3F3E3F",
"-#	c #7A767B",
";#	c #545355",
">#	c #2B2A2B",
",#	c #323233",
"'#	c #4E4C4F",
")#	c #454446",
"!#	c #555356",
"~#	c #5B595C",
"{#	c #4C4B4D",
"                                      . + + @ #   $ %           ",
"                                    & * = - ; > , ' ) ! ~ { ]   ",
"                                  ^ / ( _ : < [ } | 1 2 3 4     ",
"                          5 6 7 8 9 0 a b c d e f g h i j k l m ",
"                      n o p q r s t u v w x y z A B C D E F G H ",
"                    I J K L L L M N O P Q R S T U V W X Y Z `   ",
"             ...  +.@.#.$.L L L M %.&.*.=.-.;.>.,.'.).!.~.{.].  ",
"        ^./.(._.:.<.[.M L L L L L L }.|.1.2.3.4.5.6.7.8.9.0.a.  ",
"      5 b.M L L 3.L M M L L L L L L L L c.M L L r d.e.f.g.h.i.  ",
"      j.k.L L L l.m.n.o.p.c.L L L L c.3.M L L L L q.r.s.t.u.    ",
"      v.3.L L }.w.x.y.z.A.B.M L c.C.D.E.F.[.L L L G.H.I.J.      ",
"      K.L.L L m.M.N.O.P.Q.R.S.L T.U.V.W.X.Y.c.L Z.`. +.+        ",
"      ++@+L L #+$+%+&+W.x.*+=+M -+;+>+$+,+'+)+L !+~+{+          ",
"      ]+M L L ^+/+(+_+:+;+<+[+M }+O.O.|+1+2+3+L L 4+5+m         ",
"    6+_.L L L K 7+8+A.9+X.0+3.L C.a+O.b+c+d+c.L L e+f+g+        ",
"h+i+|.}.L L L L j+k+l+m+n+o+L L c.p+q+r+s+t+L L L L u+v+w+      ",
"x+M L L L L L y+z+l.A+B+M L L L L L 3.l.C+D+E+L L L L L F+      ",
"G+M L L L L M H+I+J+K+L L L L L L L c.L+M+N+O+L L L L L P+      ",
"Q+M L L L L M R+S+T+U+V+L L L L L W+X+Y+Z+`+ @L L L L L .@      ",
"+@@@M L L L L #@$@%@&@*@q.3.M M =@-@;@>@,@'@c.L L L M c.)@      ",
"!@~@{@S.L L L [+]@^@/@(@_@:@<@[@}@|@1@2@3@4@L L L 3.5@~@6@      ",
"      7@L L L c.8@9@0@a@b@c@d@e@f@g@h@i@j@o+L L L k@6+          ",
"      l@l.L L L t+m@n@o@p@q@r@s@t@u@v@w@x@L L L M y@            ",
"        z@L L L L V+A@B@C@D@E@F@G@H@I@J@L L L L K@L@            ",
"      M@@+L L L L L @@|.8@N@O@P@Q@z@R@L L L L L K+x+            ",
"    S@T@L L L L L L L L M 3.$.}.M L L L L L L L L K@U@          ",
"      V@K L L L L L L L L L L L L L L L L L L L 3.W@            ",
"        X@Y@L $._.K+L L L L L L L L L c.Z@`@L }. #              ",
"          .#=++#@###$#%#M L L L L V+.@&#*#=#-#;#                ",
"            >#        ,#t+L L L M '#        @#                  ",
"                      6+K@M M M @@~@                            ",
"                        )#!#~#5@{#^.                            "};
